<svg width="16" height="16" viewBox="0 0 16 16" fill="none" xmlns="http://www.w3.org/2000/svg">
<path fill-rule="evenodd" clip-rule="evenodd" d="M1.45199 8.54335H6.48425C6.94554 8.54335 7.32296 8.16593 7.32296 7.70464V0.99496C7.32296 0.533669 6.94554 0.15625 6.48425 0.15625H1.45199C0.990701 0.15625 0.613281 0.533669 0.613281 0.99496V7.70464C0.613281 8.16593 0.990701 8.54335 1.45199 8.54335ZM1.45199 15.253H6.48425C6.94554 15.253 7.32296 14.8756 7.32296 14.4143V11.0595C7.32296 10.5982 6.94554 10.2208 6.48425 10.2208H1.45199C0.990701 10.2208 0.613281 10.5982 0.613281 11.0595V14.4143C0.613281 14.8756 0.990701 15.253 1.45199 15.253ZM9.83909 15.253H14.8713C15.3326 15.253 15.7101 14.8756 15.7101 14.4143V7.70464C15.7101 7.24335 15.3326 6.86593 14.8713 6.86593H9.83909C9.3778 6.86593 9.00038 7.24335 9.00038 7.70464V14.4143C9.00038 14.8756 9.3778 15.253 9.83909 15.253ZM9.00038 0.99496V4.3498C9.00038 4.81109 9.3778 5.18851 9.83909 5.18851H14.8713C15.3326 5.18851 15.7101 4.81109 15.7101 4.3498V0.99496C15.7101 0.533669 15.3326 0.15625 14.8713 0.15625H9.83909C9.3778 0.15625 9.00038 0.533669 9.00038 0.99496Z" fill="#28324F"/>
</svg>
