<svg width="18" height="18" viewBox="0 0 18 18" fill="none" xmlns="http://www.w3.org/2000/svg">
<path fill-rule="evenodd" clip-rule="evenodd" d="M15.4522 0.833984H2.03289C1.11031 0.833984 0.363856 1.58882 0.363856 2.5114L0.355469 17.6082L3.71031 14.2533H15.4522C16.3748 14.2533 17.1297 13.4985 17.1297 12.5759V2.5114C17.1297 1.58882 16.3748 0.833984 15.4522 0.833984ZM4.54921 6.70514H12.9363C13.3976 6.70514 13.775 7.08256 13.775 7.54385C13.775 8.00514 13.3976 8.38256 12.9363 8.38256H4.54921C4.08792 8.38256 3.7105 8.00514 3.7105 7.54385C3.7105 7.08256 4.08792 6.70514 4.54921 6.70514ZM9.58146 10.8987H4.54921C4.08792 10.8987 3.7105 10.5213 3.7105 10.06C3.7105 9.59869 4.08792 9.22127 4.54921 9.22127H9.58146C10.0428 9.22127 10.4202 9.59869 10.4202 10.06C10.4202 10.5213 10.0428 10.8987 9.58146 10.8987ZM12.9363 5.86643H4.54921C4.08792 5.86643 3.7105 5.48901 3.7105 5.02772C3.7105 4.56643 4.08792 4.18901 4.54921 4.18901H12.9363C13.3976 4.18901 13.775 4.56643 13.775 5.02772C13.775 5.48901 13.3976 5.86643 12.9363 5.86643Z" fill="#7A819C"/>
</svg>
