<svg width="17" height="17" viewBox="0 0 17 17" fill="none" xmlns="http://www.w3.org/2000/svg">
<path fill-rule="evenodd" clip-rule="evenodd" d="M14.7472 9.33403C14.7807 9.06564 14.8059 8.79726 14.8059 8.5121C14.8059 8.22694 14.7807 7.95855 14.7472 7.69016L16.5168 6.30629C16.6762 6.18048 16.7181 5.95403 16.6175 5.76952L14.9401 2.86758C14.8394 2.68306 14.613 2.61597 14.4285 2.68306L12.3401 3.52177C11.9039 3.18629 11.4343 2.90952 10.9226 2.69984L10.6039 0.477258C10.5788 0.275968 10.4026 0.125 10.193 0.125H6.83813C6.62846 0.125 6.45233 0.275968 6.42717 0.477258L6.10846 2.69984C5.59684 2.90952 5.12717 3.19468 4.69104 3.52177L2.60265 2.68306C2.40975 2.60758 2.19168 2.68306 2.09104 2.86758L0.413618 5.76952C0.304586 5.95403 0.354908 6.18048 0.514263 6.30629L2.28394 7.69016C2.25039 7.95855 2.22523 8.23532 2.22523 8.5121C2.22523 8.78887 2.25039 9.06564 2.28394 9.33403L0.514263 10.7179C0.354908 10.8437 0.312973 11.0702 0.413618 11.2547L2.09104 14.1566C2.19168 14.3411 2.41813 14.4082 2.60265 14.3411L4.69104 13.5024C5.12717 13.8379 5.59684 14.1147 6.10846 14.3244L6.42717 16.5469C6.45233 16.7482 6.62846 16.8992 6.83813 16.8992H10.193C10.4026 16.8992 10.5788 16.7482 10.6039 16.5469L10.9226 14.3244C11.4343 14.1147 11.9039 13.8295 12.3401 13.5024L14.4285 14.3411C14.6214 14.4166 14.8394 14.3411 14.9401 14.1566L16.6175 11.2547C16.7181 11.0702 16.6762 10.8437 16.5168 10.7179L14.7472 9.33403ZM8.51588 11.4478C6.89717 11.4478 5.58039 10.131 5.58039 8.51229C5.58039 6.89358 6.89717 5.5768 8.51588 5.5768C10.1346 5.5768 11.4514 6.89358 11.4514 8.51229C11.4514 10.131 10.1346 11.4478 8.51588 11.4478Z" fill="#7A819C"/>
</svg>
