<svg width="17" height="15" viewBox="0 0 17 15" fill="none" xmlns="http://www.w3.org/2000/svg">
<path d="M15.1422 2.64805H14.3422V14.648H15.1422C16.0222 14.648 16.7422 13.928 16.7422 13.048V4.24805C16.7422 3.36805 16.0222 2.64805 15.1422 2.64805ZM0.742188 4.24805V13.048C0.742188 13.928 1.46139 14.648 2.34219 14.648H3.14219V2.64805H2.34219C1.46139 2.64805 0.742188 3.36805 0.742188 4.24805ZM11.5422 0.972847C10.9974 0.720047 10.031 0.248047 8.72699 0.248047C7.42059 0.248047 6.48699 0.720047 5.94219 0.972847V2.64805H3.94219V14.648H13.5422V2.64805H11.5422V0.972847ZM10.3422 2.64805H7.14219V1.57925C7.56939 1.39525 8.00459 1.20725 8.72699 1.20725C9.44859 1.20725 9.91579 1.39445 10.3422 1.57925V2.64805Z" fill="#7A819C"/>
</svg>
