<svg width="20" height="20" viewBox="0 0 20 20" fill="none" xmlns="http://www.w3.org/2000/svg">
<path d="M9.74024 19.6043C4.45503 19.6035 0.162109 15.3091 0.162109 10.0224C0.162109 4.73644 4.45503 0.446516 9.74473 0.447266C15.0352 0.448015 19.3244 4.73869 19.3221 10.0269C19.3199 15.3143 15.0277 19.6043 9.74024 19.6035V19.6043ZM9.43446 4.40742C8.97653 4.40443 8.17986 4.60603 7.46562 5.08943C6.7214 5.59232 6.22901 6.26984 6.05813 7.16245C5.98543 7.54392 6.03789 7.89392 6.34367 8.17197C6.87804 8.65762 7.626 8.47101 7.9063 7.7785C8.01797 7.5027 8.10191 7.21491 8.24356 6.9511C8.41893 6.62508 8.6108 6.30881 8.96604 6.14767C9.45244 5.92733 9.96283 5.90635 10.4582 6.07947C11.3628 6.39575 11.6971 7.42626 11.1342 8.15174C11.0308 8.28439 10.9214 8.41105 10.797 8.52572C10.3346 8.95291 9.85191 9.35837 9.41572 9.81329C8.86337 10.3889 8.62054 11.0806 8.66251 11.8721C8.68649 12.321 8.94431 12.6335 9.34227 12.7235C9.90961 12.8516 10.3421 12.602 10.4395 12.01C10.5557 11.3085 10.9169 10.7891 11.4423 10.3417C11.8732 9.97368 12.2937 9.58995 12.6894 9.18449C13.9425 7.90067 13.546 6.08847 12.3364 5.17712C11.5944 4.61802 10.7453 4.41042 9.43521 4.40742H9.43446ZM10.7543 14.5589C10.7603 13.9211 10.2926 13.4354 9.66754 13.4302C9.026 13.425 8.52911 13.9046 8.52611 14.5319C8.52311 15.1674 8.98853 15.6359 9.62932 15.6411C10.2806 15.6471 10.7483 15.1974 10.7543 14.5589Z" fill="#7A819C"/>
</svg>
