<svg width="19" height="13" viewBox="0 0 19 13" fill="none" xmlns="http://www.w3.org/2000/svg">
<path fill-rule="evenodd" clip-rule="evenodd" d="M13.0982 5.9971C14.4905 5.9971 15.606 4.87323 15.606 3.48097C15.606 2.08871 14.4905 0.964844 13.0982 0.964844C11.706 0.964844 10.5821 2.08871 10.5821 3.48097C10.5821 4.87323 11.706 5.9971 13.0982 5.9971ZM6.38855 5.9971C7.7808 5.9971 8.89629 4.87323 8.89629 3.48097C8.89629 2.08871 7.7808 0.964844 6.38855 0.964844C4.99629 0.964844 3.87242 2.08871 3.87242 3.48097C3.87242 4.87323 4.99629 5.9971 6.38855 5.9971ZM6.38855 7.67452C4.43435 7.67452 0.517578 8.65581 0.517578 10.61V11.8681C0.517578 12.3294 0.894997 12.7068 1.35629 12.7068H11.4208C11.8821 12.7068 12.2595 12.3294 12.2595 11.8681V10.61C12.2595 8.65581 8.34274 7.67452 6.38855 7.67452ZM13.0985 7.67452C12.8552 7.67452 12.5785 7.6913 12.2849 7.71646C12.3017 7.72484 12.3101 7.74162 12.3185 7.75C13.2746 8.44613 13.9372 9.3771 13.9372 10.61V11.8681C13.9372 12.1616 13.8785 12.4468 13.7862 12.7068H18.1307C18.592 12.7068 18.9694 12.3294 18.9694 11.8681V10.61C18.9694 8.65581 15.0526 7.67452 13.0985 7.67452Z" fill="#7A819C"/>
</svg>
