<svg width="21" height="19" viewBox="0 0 21 19" fill="none" xmlns="http://www.w3.org/2000/svg">
<path d="M18.75 3.83105H17.75V18.8311H18.75C19.85 18.8311 20.75 17.9311 20.75 16.8311V5.83105C20.75 4.73105 19.85 3.83105 18.75 3.83105ZM0.75 5.83105V16.8311C0.75 17.9311 1.649 18.8311 2.75 18.8311H3.75V3.83105H2.75C1.649 3.83105 0.75 4.73105 0.75 5.83105ZM14.25 1.73705C13.569 1.42105 12.361 0.831055 10.731 0.831055C9.098 0.831055 7.931 1.42105 7.25 1.73705V3.83105H4.75V18.8311H16.75V3.83105H14.25V1.73705ZM12.75 3.83105H8.75V2.49505C9.284 2.26505 9.828 2.03005 10.731 2.03005C11.633 2.03005 12.217 2.26405 12.75 2.49505V3.83105Z" fill="#9AA5BA"/>
</svg>
