<svg width="16" height="18" viewBox="0 0 16 18" fill="none" xmlns="http://www.w3.org/2000/svg">
<path d="M8.98876 15.1916C9.40322 15.2039 9.81012 15.3049 10.1816 15.4879H10.204C10.5143 15.7411 10.5671 16.1931 10.3233 16.5102C9.8793 17.1455 9.16895 17.5461 8.39234 17.5991C7.59445 17.6943 6.79095 17.4734 6.15575 16.9843C5.82908 16.7603 5.61678 16.406 5.57424 16.0139C5.57424 15.599 5.96192 15.4064 6.31977 15.325C6.73891 15.2367 7.16617 15.192 7.59462 15.1916H8.98876ZM8.0494 0.954102C10.6289 0.954102 13.2905 2.82083 13.5663 5.52463C13.611 6.0802 13.5663 6.658 13.611 7.22098C13.7574 7.947 14.0943 8.62166 14.5877 9.17661C14.8944 9.63267 15.0721 10.1623 15.1022 10.71V10.8804C15.1067 11.6194 14.8419 12.3351 14.3566 12.8953C13.7415 13.5529 12.9069 13.9662 12.0082 14.0583C9.35267 14.399 6.66411 14.399 4.00863 14.0583C3.09925 13.9732 2.25296 13.5593 1.63039 12.8953C1.16032 12.3298 0.913819 11.6134 0.937051 10.8804V10.71C0.966145 10.1643 1.13834 9.63572 1.43656 9.17661C1.93209 8.62115 2.27378 7.94724 2.42811 7.22098C2.47284 6.658 2.42811 6.08761 2.47284 5.52463C2.75614 2.82083 5.36549 0.954102 7.97484 0.954102H8.0494Z" fill="#B7B6D2"/>
</svg>
