<svg width="54" height="55" viewBox="0 0 54 55" fill="none" xmlns="http://www.w3.org/2000/svg">
<path d="M27 54.9287C41.9117 54.9287 54 42.8404 54 27.9287C54 13.017 41.9117 0.928711 27 0.928711C12.0883 0.928711 0 13.017 0 27.9287C0 42.8404 12.0883 54.9287 27 54.9287Z" fill="#FED402"/>
<path d="M26.9996 50.5823C39.511 50.5823 49.6535 40.4398 49.6535 27.9283C49.6535 15.4169 39.511 5.27441 26.9996 5.27441C14.4882 5.27441 4.3457 15.4169 4.3457 27.9283C4.3457 40.4398 14.4882 50.5823 26.9996 50.5823Z" fill="#FAC600"/>
<path d="M26.9994 5.27441C26.1827 5.27461 25.3666 5.31886 24.5547 5.40697C35.9001 6.63256 44.7639 16.2624 44.7639 27.9283C44.7639 39.5943 35.9001 49.2241 24.5547 50.4497C25.3666 50.5378 26.1827 50.5821 26.9994 50.5823C39.4943 50.5823 49.6533 40.4233 49.6533 27.9283C49.6533 15.4334 39.4943 5.27441 26.9994 5.27441Z" fill="#E8B800"/>
<path d="M30.7832 21.2695H37.7369V36.6943H30.9096" stroke="white" stroke-width="5.57982"/>
<path d="M25.3301 21.2695H18.3764V36.6943H25.2037" stroke="white" stroke-width="5.57982"/>
</svg>
