<svg width="16" height="14" viewBox="0 0 16 14" fill="none" xmlns="http://www.w3.org/2000/svg">
<path fill-rule="evenodd" clip-rule="evenodd" d="M15.4608 2.48658L10.9775 6.9699L15.4608 11.4532C15.9115 11.9039 15.9115 12.6318 15.4608 13.0825C15.0102 13.5331 14.2822 13.5331 13.8316 13.0825L8.52787 7.77875C8.07723 7.32811 8.07723 6.60014 8.52787 6.1495L13.8316 0.845778C14.0475 0.629409 14.3406 0.507812 14.6462 0.507812C14.9519 0.507812 15.245 0.629409 15.4608 0.845778C15.8999 1.29642 15.9115 2.03594 15.4608 2.48658Z" fill="#6B7A99"/>
<path fill-rule="evenodd" clip-rule="evenodd" d="M7.85245 2.48658L3.36913 6.9699L7.85245 11.4532C8.30309 11.9039 8.30309 12.6318 7.85245 13.0825C7.4018 13.5331 6.67384 13.5331 6.2232 13.0825L0.919476 7.77875C0.468833 7.32811 0.468833 6.60014 0.919476 6.1495L6.2232 0.845778C6.43908 0.629409 6.73217 0.507812 7.03782 0.507812C7.34347 0.507812 7.63656 0.629409 7.85245 0.845778C8.29154 1.29642 8.30309 2.03594 7.85245 2.48658Z" fill="#6B7A99"/>
</svg>
