<svg width="18" height="18" viewBox="0 0 18 18" fill="none" xmlns="http://www.w3.org/2000/svg">
<mask id="mask0_142_2322" style="mask-type:alpha" maskUnits="userSpaceOnUse" x="0" y="0" width="18" height="18">
<rect x="0.410156" y="0.630859" width="17" height="17" fill="#D9D9D9"/>
</mask>
<g mask="url(#mask0_142_2322)">
<path d="M8.9095 9.83984L3.24284 6.29818V13.3815H9.61784V14.7982H3.24284C2.85326 14.7982 2.51975 14.6595 2.24232 14.382C1.96489 14.1046 1.82617 13.7711 1.82617 13.3815V4.88151C1.82617 4.49193 1.96489 4.15842 2.24232 3.88099C2.51975 3.60356 2.85326 3.46484 3.24284 3.46484H14.5762C14.9658 3.46484 15.2993 3.60356 15.5767 3.88099C15.8541 4.15842 15.9928 4.49193 15.9928 4.88151V9.83984H14.5762V6.29818L8.9095 9.83984ZM8.9095 8.42318L14.5762 4.88151H3.24284L8.9095 8.42318ZM13.8678 16.9232L12.8762 15.9315L13.9918 14.7982H11.0345V13.3815H13.9918L12.8585 12.2482L13.8678 11.2565L16.7012 14.0898L13.8678 16.9232ZM3.24284 6.29818V14.0898V9.83984V9.89297V4.88151V6.29818Z" fill="#212529"/>
</g>
</svg>
