<svg width="13" height="13" viewBox="0 0 13 13" fill="none" xmlns="http://www.w3.org/2000/svg">
<path d="M6.29294 0.654297C4.86824 0.654356 3.49004 1.16136 2.40495 2.0846C1.31986 3.00783 0.598684 4.28704 0.370465 5.69335C0.142245 7.09966 0.421875 8.54129 1.15932 9.76029C1.89676 10.9793 3.0439 11.8961 4.39547 12.3467C4.69547 12.3992 4.80797 12.2192 4.80797 12.0617C4.80797 11.9192 4.80046 11.4467 4.80046 10.9442C3.29296 11.2217 2.90297 10.5767 2.78297 10.2392C2.64981 9.911 2.43874 9.62012 2.16797 9.39174C1.95797 9.27924 1.65798 9.00174 2.16047 8.99425C2.35234 9.01507 2.53636 9.08183 2.69695 9.18889C2.85753 9.29594 2.98994 9.44013 3.08297 9.60923C3.16503 9.75665 3.27537 9.88642 3.40768 9.99112C3.53998 10.0958 3.69165 10.1734 3.85398 10.2194C4.01631 10.2654 4.18612 10.2789 4.35368 10.2591C4.52124 10.2393 4.68326 10.1867 4.83044 10.1042C4.85642 9.7992 4.99236 9.51401 5.21295 9.30175C3.87796 9.15175 2.48297 8.63423 2.48297 6.33927C2.47454 5.74297 2.69458 5.16603 3.09797 4.72679C2.91454 4.20852 2.936 3.63976 3.15796 3.1368C3.15796 3.1368 3.66044 2.97929 4.80795 3.75179C5.78972 3.48178 6.82617 3.48178 7.80793 3.75179C8.95541 2.9718 9.45792 3.1368 9.45792 3.1368C9.67992 3.63976 9.70138 4.20853 9.51792 4.72679C9.92252 5.16528 10.1428 5.74272 10.1329 6.33927C10.1329 8.64174 8.73041 9.15175 7.39544 9.30175C7.53862 9.44688 7.6489 9.62113 7.71879 9.81266C7.78867 10.0042 7.81651 10.2085 7.80043 10.4117C7.80043 11.2143 7.79293 11.8592 7.79293 12.0617C7.79293 12.2192 7.90543 12.4067 8.20542 12.3467C9.55461 11.8925 10.6985 10.9735 11.4328 9.75386C12.1671 8.53424 12.444 7.09335 12.2142 5.6884C11.9844 4.28346 11.2628 3.0059 10.1782 2.08379C9.09358 1.16168 7.71656 0.655038 6.29294 0.654297Z" fill="#242833"/>
</svg>
