<svg width="17" height="15" viewBox="0 0 17 15" fill="none" xmlns="http://www.w3.org/2000/svg">
<path d="M12.084 0.09375C13.1568 0.09375 14.1888 0.51775 14.948 1.27855C15.708 2.03775 16.1328 3.06175 16.1328 4.13375V10.4537C16.1328 12.6858 14.3168 14.4938 12.084 14.4938H4.18081C1.94801 14.4938 0.132812 12.6858 0.132812 10.4537V4.13375C0.132812 1.90175 1.94001 0.09375 4.18081 0.09375H12.084ZM12.9888 4.25375C12.8208 4.24495 12.6608 4.30175 12.54 4.41375L8.93281 7.29375C8.46881 7.67855 7.80401 7.67855 7.33281 7.29375L3.73281 4.41375C3.48401 4.22975 3.14001 4.25375 2.93281 4.46975C2.71681 4.68575 2.69281 5.02975 2.87601 5.26975L2.98081 5.37375L6.62081 8.21375C7.06881 8.56575 7.61201 8.75775 8.18081 8.75775C8.74801 8.75775 9.30081 8.56575 9.74801 8.21375L13.3568 5.32575L13.4208 5.26175C13.612 5.02975 13.612 4.69375 13.412 4.46175C13.3008 4.34255 13.148 4.26975 12.9888 4.25375Z" fill="#B7B6D2"/>
</svg>
