<svg width="29" height="28" viewBox="0 0 29 28" fill="none" xmlns="http://www.w3.org/2000/svg">
<path fill-rule="evenodd" clip-rule="evenodd" d="M9.23662 12.1817C8.2181 12.1817 7.38477 13.015 7.38477 14.0336C7.38477 15.0521 8.2181 15.8854 9.23662 15.8854C10.2551 15.8854 11.0885 15.0521 11.0885 14.0336C11.0885 13.015 10.2551 12.1817 9.23662 12.1817ZM20.3478 12.1816C19.3292 12.1816 18.4959 13.015 18.4959 14.0335C18.4959 15.052 19.3292 15.8853 20.3478 15.8853C21.3663 15.8853 22.1996 15.052 22.1996 14.0335C22.1996 13.015 21.3663 12.1816 20.3478 12.1816ZM14.7922 12.1816C13.7737 12.1816 12.9404 13.015 12.9404 14.0335C12.9404 15.052 13.7737 15.8853 14.7922 15.8853C15.8107 15.8853 16.6441 15.052 16.6441 14.0335C16.6441 13.015 15.8107 12.1816 14.7922 12.1816Z" fill="white" fill-opacity="0.5"/>
</svg>
