<svg width="15" height="16" viewBox="0 0 15 16" fill="none" xmlns="http://www.w3.org/2000/svg">
<path fill-rule="evenodd" clip-rule="evenodd" d="M7.50506 0.958984C3.41617 0.958984 0.0976562 4.2775 0.0976562 8.36639C0.0976562 12.4553 3.41617 15.7738 7.50506 15.7738C11.594 15.7738 14.9125 12.4553 14.9125 8.36639C14.9125 4.2775 11.594 0.958984 7.50506 0.958984ZM10.468 9.10713H8.2458V11.3294C8.2458 11.7368 7.91247 12.0701 7.50506 12.0701C7.09766 12.0701 6.76432 11.7368 6.76432 11.3294V9.10713H4.5421C4.13469 9.10713 3.80136 8.7738 3.80136 8.36639C3.80136 7.95898 4.13469 7.62565 4.5421 7.62565H6.76432V5.40343C6.76432 4.99602 7.09766 4.66269 7.50506 4.66269C7.91247 4.66269 8.2458 4.99602 8.2458 5.40343V7.62565H10.468C10.8754 7.62565 11.2088 7.95898 11.2088 8.36639C11.2088 8.7738 10.8754 9.10713 10.468 9.10713Z" fill="white"/>
</svg>
