<svg width="13" height="14" viewBox="0 0 13 14" fill="none" xmlns="http://www.w3.org/2000/svg">
<path d="M11.2174 1.46126H8.42745C8.15411 0.68793 7.42078 0.12793 6.55078 0.12793C5.68078 0.12793 4.94745 0.68793 4.67412 1.46126H1.88411C1.14745 1.46126 0.550781 2.05793 0.550781 2.7946V12.1279C0.550781 12.8646 1.14745 13.4613 1.88411 13.4613H11.2174C11.9541 13.4613 12.5508 12.8646 12.5508 12.1279V2.7946C12.5508 2.05793 11.9541 1.46126 11.2174 1.46126ZM6.55078 1.46126C6.91745 1.46126 7.21745 1.75793 7.21745 2.12793C7.21745 2.49793 6.91745 2.7946 6.55078 2.7946C6.18411 2.7946 5.88411 2.49793 5.88411 2.12793C5.88411 1.75793 6.18411 1.46126 6.55078 1.46126ZM5.21745 10.7946L2.55078 8.12793L3.49411 7.1846L5.21745 8.90793L9.60745 4.51793L10.5508 5.46126L5.21745 10.7946Z" fill="white"/>
</svg>
