<svg width="13" height="11" viewBox="0 0 13 11" fill="none" xmlns="http://www.w3.org/2000/svg">
<path d="M10.9378 6.71616C10.9378 6.99688 10.8545 7.27129 10.6986 7.5047C10.5426 7.73811 10.3209 7.92002 10.0616 8.02745C9.80224 8.13488 9.51686 8.16298 9.24154 8.10822C8.96622 8.05345 8.71332 7.91827 8.51482 7.71978C8.31632 7.52128 8.18114 7.26838 8.12638 6.99306C8.07161 6.71773 8.09972 6.43236 8.20715 6.17301C8.31457 5.91366 8.49649 5.69199 8.7299 5.53603C8.96331 5.38007 9.23772 5.29683 9.51844 5.29683C9.89474 5.29723 10.2555 5.44689 10.5216 5.71298C10.7877 5.97907 10.9374 6.33985 10.9378 6.71616ZM8.63577 8.57586V10.0609C8.63575 10.0981 8.64546 10.1348 8.66394 10.1671C8.68242 10.1995 8.70902 10.2264 8.74112 10.2453C8.77322 10.2643 8.8097 10.2745 8.84696 10.2749C8.88421 10.2754 8.92095 10.2662 8.95353 10.2481L9.36309 10.0213C9.41067 9.99496 9.46416 9.98114 9.51854 9.98114C9.57293 9.98114 9.62642 9.99496 9.674 10.0213L10.0833 10.2481C10.1159 10.2661 10.1526 10.2753 10.1899 10.2748C10.2271 10.2743 10.2635 10.2641 10.2956 10.2452C10.3277 10.2263 10.3542 10.1993 10.3727 10.167C10.3912 10.1347 10.4009 10.0981 10.4009 10.0609V8.57586C10.1255 8.70837 9.8239 8.77718 9.51833 8.77718C9.21276 8.77718 8.91111 8.70837 8.63577 8.57586ZM12.1504 0.34191V8.54804C12.1504 8.60479 12.1278 8.65922 12.0877 8.69935C12.0476 8.73948 11.9932 8.76202 11.9364 8.76202H11.042V8.09869C11.3879 7.7215 11.5796 7.22817 11.5791 6.71637C11.5799 6.38136 11.499 6.05119 11.3435 5.75447C11.1879 5.45776 10.9624 5.20344 10.6864 5.01356C10.4104 4.82368 10.0922 4.70395 9.7595 4.66476C9.42678 4.62557 9.08953 4.66809 8.77695 4.78865C8.46438 4.9092 8.18591 5.10414 7.96567 5.35659C7.74543 5.60905 7.59006 5.91139 7.51303 6.23743C7.436 6.56347 7.43962 6.90338 7.52359 7.2277C7.60755 7.55202 7.76933 7.85099 7.9949 8.09869V8.76202H0.364371C0.30762 8.76202 0.253193 8.73948 0.213064 8.69935C0.172935 8.65922 0.150391 8.60479 0.150391 8.54804V0.34191C0.150391 0.285159 0.172935 0.230732 0.213064 0.190603C0.253193 0.150474 0.30762 0.12793 0.364371 0.12793H11.9364C11.9932 0.12793 12.0476 0.150474 12.0877 0.190603C12.1278 0.230732 12.1504 0.285159 12.1504 0.34191ZM3.8715 1.85475C3.87145 1.89691 3.87971 1.93868 3.89582 1.97765C3.91193 2.01661 3.93557 2.05202 3.96539 2.08183C3.9952 2.11165 4.03061 2.13529 4.06958 2.1514C4.10854 2.16751 4.15031 2.17577 4.19247 2.17572H8.10831C8.19343 2.17572 8.27507 2.1419 8.33527 2.08171C8.39546 2.02152 8.42928 1.93987 8.42928 1.85475C8.42928 1.76962 8.39546 1.68798 8.33527 1.62779C8.27507 1.56759 8.19343 1.53378 8.10831 1.53378H4.19247C4.15031 1.53372 4.10854 1.54199 4.06958 1.5581C4.03061 1.57421 3.9952 1.59785 3.96539 1.62766C3.93557 1.65748 3.91193 1.69288 3.89582 1.73185C3.87971 1.77082 3.87145 1.81258 3.8715 1.85475ZM6.77949 6.2285C6.77955 6.18633 6.77128 6.14457 6.75517 6.1056C6.73906 6.06664 6.71542 6.03123 6.68561 6.00141C6.65579 5.9716 6.62039 5.94796 6.58142 5.93185C6.54245 5.91574 6.50069 5.90747 6.45852 5.90753H1.66323C1.5781 5.90753 1.49646 5.94135 1.43627 6.00154C1.37608 6.06173 1.34226 6.14337 1.34226 6.2285C1.34226 6.31363 1.37608 6.39527 1.43627 6.45546C1.49646 6.51565 1.5781 6.54947 1.66323 6.54947H6.45852C6.50069 6.54953 6.54245 6.54126 6.58142 6.52515C6.62039 6.50904 6.65579 6.4854 6.68561 6.45559C6.71542 6.42577 6.73906 6.39036 6.75517 6.3514C6.77128 6.31243 6.77955 6.27067 6.77949 6.2285ZM7.21815 4.7713C7.21821 4.72913 7.20994 4.68737 7.19383 4.6484C7.17772 4.60943 7.15408 4.57403 7.12427 4.54421C7.09445 4.51439 7.05904 4.49075 7.02008 4.47464C6.98111 4.45853 6.93935 4.45027 6.89718 4.45033H1.66323C1.5781 4.45033 1.49646 4.48414 1.43627 4.54434C1.37608 4.60453 1.34226 4.68617 1.34226 4.7713C1.34226 4.85642 1.37608 4.93806 1.43627 4.99826C1.49646 5.05845 1.5781 5.09227 1.66323 5.09227H6.89718C6.93935 5.09232 6.98111 5.08406 7.02008 5.06795C7.05904 5.05184 7.09445 5.0282 7.12427 4.99838C7.15408 4.96857 7.17772 4.93316 7.19383 4.89419C7.20994 4.85523 7.21821 4.81346 7.21815 4.7713ZM10.9585 3.31195C10.9583 3.2269 10.9244 3.14539 10.8643 3.08524C10.8041 3.0251 10.7226 2.99121 10.6376 2.99098H1.66323C1.5781 2.99098 1.49646 3.0248 1.43627 3.08499C1.37608 3.14519 1.34226 3.22683 1.34226 3.31195C1.34226 3.39708 1.37608 3.47872 1.43627 3.53891C1.49646 3.59911 1.5781 3.63292 1.66323 3.63292H10.6376C10.6797 3.63298 10.7215 3.62472 10.7604 3.6086C10.7994 3.59249 10.8348 3.56885 10.8646 3.53904C10.8945 3.50922 10.9181 3.47382 10.9342 3.43485C10.9503 3.39588 10.9586 3.35412 10.9585 3.31195Z" fill="white"/>
</svg>
