<svg width="13" height="13" viewBox="0 0 13 13" fill="none" xmlns="http://www.w3.org/2000/svg">
<path d="M0.750267 2.73297C0.753083 2.35749 0.829588 1.99843 0.986353 1.65674C1.11073 1.38545 1.38202 1.33288 1.59323 1.54268C1.98139 1.92756 2.3686 2.31384 2.7516 2.70387C2.81543 2.76864 2.84688 2.76395 2.90508 2.70152C3.04119 2.55602 3.18246 2.41569 3.3275 2.2791C3.3871 2.22278 3.38476 2.19086 3.32656 2.13407C2.94826 1.7614 2.58357 1.37419 2.19494 1.01278C1.95698 0.791717 2.00204 0.479596 2.32495 0.339728C3.86913 -0.329572 5.67943 0.657481 5.93288 2.31571C5.97513 2.59216 5.98592 2.86674 5.9357 3.14225C5.92584 3.19575 5.94368 3.22908 5.97982 3.26475C7.19263 4.47615 8.40498 5.6885 9.61638 6.90178C9.65299 6.93839 9.68632 6.95153 9.73936 6.94262C11.1258 6.71451 12.4658 7.67199 12.7057 9.05471C12.7986 9.58978 12.7367 10.1028 12.5151 10.5965C12.3898 10.8763 12.119 10.9279 11.9021 10.7129C11.5168 10.3304 11.1324 9.94743 10.7522 9.55974C10.6851 9.49121 10.6508 9.49872 10.5908 9.56302C10.4547 9.70805 10.3134 9.84886 10.1683 9.98497C10.1111 10.0389 10.1162 10.0685 10.1698 10.1216C10.5532 10.5003 10.9334 10.8824 11.314 11.2635C11.5558 11.5057 11.5041 11.7704 11.1887 11.9103C9.63422 12.5993 7.838 11.6207 7.56577 9.93804C7.52165 9.66581 7.5118 9.39452 7.56343 9.12371C7.57751 9.05002 7.53996 9.01622 7.49865 8.97492C6.77491 8.25165 6.05163 7.5279 5.32836 6.80415C4.85618 6.33198 4.38307 5.86075 3.91278 5.38623C3.85505 5.32756 3.80436 5.31348 3.71988 5.32475C2.4268 5.49982 1.15203 4.70238 0.822078 3.34782C0.774204 3.146 0.746981 2.94136 0.750267 2.73297Z" fill="white"/>
<path d="M4.16764 6.6377C4.18688 6.65553 4.20753 6.67337 4.22678 6.69214C4.88059 7.34595 5.53393 8.0007 6.19009 8.65311C6.24688 8.7099 6.2389 8.73947 6.18633 8.79203C5.56631 9.4083 4.94817 10.0264 4.33238 10.6465C4.277 10.7023 4.2479 10.6986 4.19486 10.645C3.54246 9.98936 2.88864 9.33508 2.23249 8.68314C2.17475 8.62588 2.18508 8.59678 2.23624 8.54562C2.85579 7.92889 3.47346 7.31028 4.0916 6.69261C4.11272 6.67149 4.13009 6.64333 4.16764 6.6377Z" fill="white"/>
<path d="M12.7494 2.08106C12.747 2.1815 12.7062 2.26787 12.6348 2.33968C12.2077 2.76773 11.7792 3.19484 11.353 3.6243C11.3094 3.66842 11.2845 3.66748 11.2418 3.6243C10.5809 2.96063 9.91821 2.29837 9.25454 1.63752C9.20995 1.59293 9.21371 1.56853 9.25595 1.52628C9.68776 1.09729 10.1163 0.664079 10.549 0.236497C10.7058 0.0816098 10.9085 0.0942824 11.0775 0.262781C11.5891 0.772031 12.0993 1.28316 12.6095 1.79429C12.6344 1.81916 12.6574 1.84545 12.6785 1.87361C12.7245 1.93415 12.7475 2.00362 12.7489 2.082L12.7494 2.08106Z" fill="white"/>
<path d="M10.7867 4.16427C10.7848 4.20041 10.7599 4.21496 10.7412 4.23326C10.2943 4.68056 9.84658 5.12691 9.40116 5.57562C9.35469 5.62255 9.32888 5.62396 9.28147 5.57655C8.62344 4.91523 7.96399 4.25579 7.30267 3.59775C7.2548 3.55035 7.25667 3.525 7.30361 3.47854C7.75231 3.03312 8.19961 2.58582 8.64503 2.13712C8.69055 2.09112 8.71684 2.08643 8.76518 2.13524C9.42322 2.79656 10.0831 3.45554 10.7426 4.11545C10.759 4.13188 10.7736 4.14972 10.7872 4.16427H10.7867Z" fill="white"/>
<path d="M1.10645 12.1281C0.848307 12.1309 0.685441 11.8798 0.785883 11.6245C0.970809 11.1537 1.1609 10.6853 1.34864 10.2155C1.47114 9.90855 1.59646 9.60253 1.71474 9.29369C1.74759 9.20827 1.772 9.21531 1.82926 9.27257C2.42112 9.86724 3.01438 10.461 3.60952 11.0524C3.67382 11.1162 3.65881 11.1368 3.58418 11.1664C2.81068 11.4729 2.03765 11.7822 1.26463 12.0906C1.21393 12.1108 1.16278 12.1305 1.10692 12.1286L1.10645 12.1281Z" fill="white"/>
</svg>
