<svg width="13" height="11" viewBox="0 0 13 11" fill="none" xmlns="http://www.w3.org/2000/svg">
<path d="M11.1496 1.92793H10.5496V10.9279H11.1496C11.8096 10.9279 12.3496 10.3879 12.3496 9.72793V3.12793C12.3496 2.46793 11.8096 1.92793 11.1496 1.92793ZM0.349609 3.12793V9.72793C0.349609 10.3879 0.889009 10.9279 1.54961 10.9279H2.14961V1.92793H1.54961C0.889009 1.92793 0.349609 2.46793 0.349609 3.12793ZM8.44961 0.67153C8.04101 0.48193 7.31621 0.12793 6.33821 0.12793C5.35841 0.12793 4.65821 0.48193 4.24961 0.67153V1.92793H2.74961V10.9279H9.94961V1.92793H8.44961V0.67153ZM7.54961 1.92793H5.14961V1.12633C5.47001 0.98833 5.79641 0.84733 6.33821 0.84733C6.87941 0.84733 7.22981 0.98773 7.54961 1.12633V1.92793Z" fill="white"/>
</svg>
