<svg width="13" height="11" viewBox="0 0 13 11" fill="none" xmlns="http://www.w3.org/2000/svg">
<path d="M9.3193 6.23176C9.3193 6.18091 9.31458 6.13688 9.31982 6.09442C9.35914 5.79983 9.23805 5.58649 9.02628 5.38259C8.42924 4.80861 7.85055 4.21577 7.26557 3.62974C7.14134 3.50551 6.99614 3.45414 6.82526 3.50289C6.6701 3.54692 6.57313 3.65542 6.53644 3.8111C6.4966 3.98041 6.56422 4.1146 6.68321 4.23307C7.21787 4.76511 7.74467 5.30501 8.28719 5.82866C8.43553 5.97176 8.50892 6.11486 8.48428 6.31772C8.4717 6.42098 8.48219 6.52687 8.48219 6.63118C8.48219 6.67049 8.48743 6.71138 8.44392 6.73339C8.10373 6.90637 7.79289 7.14278 7.41653 7.23818C6.93691 7.36031 6.47721 7.30318 6.04109 7.06205C4.64049 6.2868 3.23884 5.51363 1.83771 4.73995C1.71558 4.67285 1.59397 4.60576 1.47183 4.53814C1.14737 4.35887 0.947655 4.0973 0.949228 3.71308C0.950801 3.33358 1.15156 3.07673 1.47078 2.90008C2.68897 2.22651 3.90821 1.55452 5.1264 0.881474C5.43462 0.711116 5.74074 0.536041 6.05157 0.370401C6.63551 0.058515 7.2315 0.0422655 7.81229 0.359393C9.36228 1.20594 10.9076 2.06192 12.4502 2.92157C13.0929 3.27959 13.1227 4.12666 12.4932 4.48834C11.4595 5.08171 10.4096 5.64573 9.36595 6.2218C9.35914 6.22547 9.3497 6.22547 9.3193 6.23176Z" fill="white"/>
<path d="M8.49975 9.60979C8.44785 9.61346 8.39596 9.6208 8.34407 9.6208C7.14055 9.62132 5.93704 9.62132 4.73353 9.6208C3.72921 9.6208 2.90363 8.96662 2.67037 7.98903C2.63787 7.85275 2.62214 7.71489 2.62214 7.57493C2.62214 7.0214 2.62109 6.46787 2.62109 5.91381C2.62109 5.88813 2.62529 5.86297 2.62738 5.83519C2.69291 5.83152 2.73536 5.87345 2.78306 5.89966C3.80469 6.46158 4.81897 7.03765 5.84898 7.58384C6.57444 7.96859 7.32035 7.9471 8.05472 7.58122C8.16375 7.52671 8.2712 7.46852 8.37499 7.40562C8.45991 7.35425 8.4835 7.36998 8.48297 7.46957C8.47983 8.13213 8.48088 8.79469 8.48192 9.45725C8.48192 9.50862 8.46777 9.56209 8.4966 9.61084L8.4987 9.60874L8.49975 9.60979Z" fill="white"/>
<path d="M9.33712 9.63222C9.31091 9.58819 9.31982 9.53892 9.31982 9.49174C9.3193 8.66406 9.31982 7.83691 9.31982 7.00924C9.31982 6.94529 9.31196 6.88763 9.38953 6.84569C9.99286 6.51756 10.593 6.18418 11.1943 5.8529C11.2126 5.84242 11.2299 5.82669 11.2608 5.84294C11.2629 5.87177 11.2671 5.90532 11.2671 5.93939C11.2671 6.46619 11.2713 6.99351 11.2666 7.52031C11.2572 8.55294 10.5878 9.36856 9.57719 9.584C9.49699 9.60129 9.41574 9.61492 9.3345 9.63012L9.33764 9.63274L9.33712 9.63222Z" fill="white"/>
<path d="M9.33406 9.62922C9.30314 9.84571 9.32673 10.0632 9.32044 10.2803C9.3131 10.525 9.18677 10.687 8.96557 10.7305C8.75957 10.7709 8.5153 10.6241 8.49538 10.4165C8.4697 10.1492 8.46393 9.87873 8.50062 9.61035L8.49853 9.61245C8.73074 9.63446 8.96347 9.61612 9.19568 9.62241C9.24286 9.62346 9.28951 9.6287 9.33669 9.63237L9.33354 9.62975L9.33406 9.62922Z" fill="white"/>
</svg>
