<svg width="12" height="12" viewBox="0 0 12 12" fill="none" xmlns="http://www.w3.org/2000/svg">
<path fill-rule="evenodd" clip-rule="evenodd" d="M10.476 0.0292969H2.10989C1.31761 0.0292969 0.667969 0.679008 0.667969 1.4712V9.83737C0.667969 10.6296 1.31761 11.2793 2.10989 11.2793H10.476C11.2684 11.2793 11.918 10.6296 11.918 9.8374V1.4712C11.918 0.679008 11.2684 0.0292969 10.476 0.0292969ZM4.53516 5.46239V8.93555H3.01172V4.55273H4.53516V5.46239ZM3.77039 3.89948C3.34657 3.89948 3.00267 3.55584 3.00267 3.13177C3.00267 2.70762 3.34657 2.3644 3.77039 2.3644C4.1948 2.3644 4.53837 2.70764 4.53837 3.13177C4.53837 3.55584 4.19482 3.89948 3.77039 3.89948ZM9.57422 6.54492V8.93555H8.26172V6.80665C8.26172 6.29688 8.20652 5.64124 7.50787 5.64124C6.79861 5.64124 6.69141 6.19622 6.69141 6.7699V8.93555H5.42578V4.55273H6.64453V5.13867H6.65752C6.8393 4.81055 7.28463 4.55227 7.94777 4.55227C9.06509 4.55227 9.44477 5.08062 9.54867 5.90723C9.57333 6.10123 9.58284 6.31055 9.58284 6.54492H9.57422Z" fill="#4099EC"/>
</svg>
