<svg width="13" height="16" viewBox="0 0 13 16" fill="none" xmlns="http://www.w3.org/2000/svg">
<path d="M6.75 0.279297C5.15925 0.281083 3.63416 0.913798 2.50933 2.03863C1.3845 3.16346 0.751787 4.68855 0.75 6.2793C0.75 8.72055 2.52225 10.7478 4.3995 12.8935C4.9935 13.573 5.6085 14.2758 6.156 14.9868C6.22606 15.0777 6.31605 15.1513 6.41903 15.2019C6.52201 15.2526 6.63524 15.2789 6.75 15.2789C6.86476 15.2789 6.97799 15.2526 7.08097 15.2019C7.18395 15.1513 7.27394 15.0777 7.344 14.9868C7.8915 14.2758 8.5065 13.573 9.1005 12.8935C10.9777 10.7478 12.75 8.72055 12.75 6.2793C12.7482 4.68855 12.1155 3.16346 10.9907 2.03863C9.86584 0.913798 8.34075 0.281083 6.75 0.279297ZM6.75 8.5293C6.30499 8.5293 5.86998 8.39734 5.49997 8.1501C5.12996 7.90287 4.84157 7.55147 4.67127 7.14033C4.50097 6.7292 4.45642 6.2768 4.54323 5.84034C4.63005 5.40389 4.84434 5.00297 5.15901 4.68831C5.47368 4.37364 5.87459 4.15935 6.31105 4.07253C6.7475 3.98571 7.1999 4.03027 7.61104 4.20057C8.02217 4.37087 8.37357 4.65925 8.62081 5.02926C8.86804 5.39927 9 5.83429 9 6.2793C9 6.87603 8.76295 7.44833 8.34099 7.87029C7.91903 8.29224 7.34674 8.5293 6.75 8.5293Z" fill="#9AA5BA"/>
</svg>
