<svg width="11" height="14" viewBox="0 0 11 14" fill="none" xmlns="http://www.w3.org/2000/svg">
<g clip-path="url(#clip0_88_13730)">
<path d="M0.750456 6.84515C0.750456 5.14502 0.750456 3.44489 0.750456 1.74425C0.750456 0.894445 1.36098 0.281864 2.20874 0.281864C3.6778 0.281351 5.14738 0.282891 6.61644 0.279297C6.7217 0.279297 6.75148 0.302917 6.75046 0.411261C6.74583 1.32987 6.74738 2.24797 6.74789 3.16659C6.74789 3.74887 7.12684 4.12679 7.70964 4.12679C8.67498 4.12679 9.64032 4.12833 10.6057 4.12474C10.7104 4.12474 10.7499 4.13912 10.7499 4.2603C10.7458 6.8318 10.7474 9.40381 10.7463 11.9753C10.7463 12.7882 10.1245 13.4064 9.30861 13.4064C6.93377 13.4074 4.55893 13.4074 2.18409 13.4064C1.37074 13.4064 0.75097 12.7851 0.750456 11.9712C0.749429 10.2624 0.750456 8.55349 0.750456 6.84464V6.84515ZM5.65726 6.17814C6.5882 6.17814 7.51862 6.17763 8.44956 6.17865C8.5805 6.17865 8.695 6.14425 8.78024 6.04258C8.88139 5.9214 8.90912 5.78276 8.84032 5.63693C8.76535 5.47776 8.63338 5.40792 8.4588 5.40792C7.15662 5.40844 5.85444 5.40792 4.55225 5.40792C3.99718 5.40792 3.44211 5.40844 2.88704 5.40792C2.71862 5.40792 2.58768 5.47108 2.51015 5.62358C2.37562 5.88751 2.56663 6.17711 2.8778 6.17763C3.80412 6.17917 4.73043 6.17814 5.65726 6.17814ZM5.67369 7.45927C4.74738 7.45927 3.82055 7.4603 2.89423 7.45824C2.71451 7.45824 2.57741 7.52551 2.50142 7.68982C2.38127 7.95067 2.57793 8.22795 2.88293 8.22795C4.18512 8.22898 5.4873 8.22795 6.78948 8.22795C7.34455 8.22795 7.89962 8.22744 8.45469 8.22795C8.6226 8.22795 8.75405 8.16582 8.8321 8.01331C8.96714 7.74887 8.77716 7.45927 8.46599 7.45876C7.53505 7.45722 6.60463 7.45824 5.67369 7.45824V7.45927ZM3.77844 10.2798C4.08139 10.2798 4.38383 10.2808 4.68679 10.2798C4.92093 10.2788 5.09757 10.1155 5.10219 9.90035C5.1063 9.68315 4.92453 9.51165 4.68422 9.51113C4.08293 9.5101 3.48165 9.5101 2.88037 9.51113C2.64314 9.51113 2.4701 9.67236 2.46702 9.89059C2.46394 10.114 2.63903 10.2793 2.88293 10.2803C3.18127 10.2819 3.48011 10.2803 3.77844 10.2803V10.2798Z" fill="#9AA5BA"/>
<path d="M7.5282 0.451685C7.65657 0.509195 7.75516 0.590325 7.84759 0.677103C8.65169 1.43654 9.45529 2.19751 10.2589 2.95798C10.377 3.06991 10.4869 3.18801 10.5603 3.3359C10.5336 3.37287 10.4966 3.35643 10.4658 3.35643C9.5472 3.35746 8.6291 3.35746 7.71049 3.35695C7.5662 3.35695 7.51999 3.32049 7.51999 3.19674C7.51896 2.29507 7.51999 1.39392 7.51999 0.49225C7.51999 0.484035 7.52358 0.475819 7.52872 0.451172L7.5282 0.451685Z" fill="#9AA5BA"/>
</g>
<defs>
<clipPath id="clip0_88_13730">
<rect width="10" height="13.1281" fill="white" transform="translate(0.75 0.279297)"/>
</clipPath>
</defs>
</svg>
