<svg width="11" height="11" viewBox="0 0 11 11" fill="none" xmlns="http://www.w3.org/2000/svg">
<g clip-path="url(#clip0_61_4878)">
<path d="M4.42273 3.17458C4.30335 1.80146 2.87085 1.12771 2.81023 1.10021C2.75356 1.07357 2.69004 1.06505 2.62835 1.07583C0.974605 1.35021 0.725855 2.31271 0.715855 2.35271C0.702249 2.40845 0.704413 2.46687 0.722105 2.52146C2.6946 8.64146 6.79398 9.77583 8.14148 10.149C8.24523 10.1777 8.33086 10.2008 8.39586 10.2221C8.47003 10.2463 8.55062 10.2416 8.62148 10.209C8.66273 10.1902 9.63648 9.73146 9.87461 8.23521C9.88517 8.16989 9.87466 8.1029 9.84461 8.04396C9.82336 8.00271 9.31398 7.03333 7.90148 6.69083C7.85356 6.67858 7.80338 6.67815 7.75526 6.68958C7.70714 6.70101 7.66252 6.72396 7.62523 6.75646C7.17961 7.13708 6.56398 7.54271 6.29836 7.58458C4.51773 6.71396 3.52336 5.04333 3.48585 4.72646C3.46398 4.54833 3.8721 3.92271 4.34148 3.41396C4.37098 3.38194 4.39345 3.3441 4.40744 3.30287C4.42144 3.26164 4.42665 3.21794 4.42273 3.17458Z" fill="#3B424D"/>
</g>
<defs>
<clipPath id="clip0_61_4878">
<rect width="10" height="10" fill="white" transform="translate(0.292969 0.654297)"/>
</clipPath>
</defs>
</svg>
