<svg width="9" height="13" viewBox="0 0 9 13" fill="none" xmlns="http://www.w3.org/2000/svg">
<path d="M8.22727 3.48384L7.82386 4.97248H0.284091L0.693182 3.48384H8.22727ZM4.4375 12.2793L0.460227 7.49521L0.454545 6.23384H2.42045C2.89015 6.23384 3.2822 6.15619 3.59659 6.00089C3.91477 5.8418 4.1553 5.62021 4.31818 5.33611C4.48485 5.04824 4.56818 4.71112 4.56818 4.32475C4.56818 3.74521 4.39773 3.2793 4.05682 2.92702C3.71591 2.57475 3.17045 2.39861 2.42045 2.39861H0.284091L0.727273 0.642933H2.42045C3.375 0.642933 4.16477 0.79066 4.78977 1.08611C5.41856 1.37778 5.88826 1.79066 6.19886 2.32475C6.51326 2.85884 6.67045 3.48384 6.67045 4.19975C6.67045 4.83233 6.55492 5.39672 6.32386 5.89293C6.0928 6.38915 5.72917 6.79634 5.23295 7.11452C4.73674 7.43271 4.08712 7.64483 3.28409 7.75089L3.21591 7.77361L6.80682 12.177V12.2793H4.4375ZM8.23864 0.642933L7.82386 2.1543L1.71023 2.13157L2.125 0.642933H8.23864Z" fill="#9AA5BA"/>
</svg>
