<svg width="13" height="12" viewBox="0 0 13 12" fill="none" xmlns="http://www.w3.org/2000/svg">
<path d="M11.55 2.17891H10.95V11.1789H11.55C12.21 11.1789 12.75 10.6389 12.75 9.97891V3.37891C12.75 2.71891 12.21 2.17891 11.55 2.17891ZM0.75 3.37891V9.97891C0.75 10.6389 1.2894 11.1789 1.95 11.1789H2.55V2.17891H1.95C1.2894 2.17891 0.75 2.71891 0.75 3.37891ZM8.85 0.922506C8.4414 0.732906 7.7166 0.378906 6.7386 0.378906C5.7588 0.378906 5.0586 0.732906 4.65 0.922506V2.17891H3.15V11.1789H10.35V2.17891H8.85V0.922506ZM7.95 2.17891H5.55V1.37731C5.8704 1.23931 6.1968 1.09831 6.7386 1.09831C7.2798 1.09831 7.6302 1.23871 7.95 1.37731V2.17891Z" fill="#9AA5BA"/>
</svg>
