<svg width="13" height="12" viewBox="0 0 13 12" fill="none" xmlns="http://www.w3.org/2000/svg">
<path d="M10.3973 11.961C9.97042 12.2651 7.23111 10.3375 6.70647 10.3333C6.18183 10.3291 3.41168 12.2123 2.98974 11.9014C2.5678 11.5905 3.55976 8.39699 3.40168 7.89816C3.2436 7.39934 0.591348 5.35418 0.757487 4.85795C0.923663 4.36171 4.27603 4.31562 4.70296 4.01153C5.12988 3.70748 6.26087 0.560257 6.78555 0.564457C7.31015 0.568694 8.39005 3.73371 8.81199 4.04462C9.23393 4.3555 12.5852 4.45558 12.7433 4.9544C12.9014 5.45323 10.2164 7.45543 10.0502 7.95167C9.88409 8.4479 10.8243 11.6569 10.3973 11.961Z" fill="#F8B84E"/>
</svg>
