<svg width="21" height="21" viewBox="0 0 21 21" fill="none" xmlns="http://www.w3.org/2000/svg">
<path d="M13.5588 14.6509C13.5588 15.5478 13.5588 16.4447 13.5588 17.3421C13.5588 17.7479 13.375 17.933 12.9748 17.933C11.4865 17.933 9.99821 17.933 8.50989 17.933C8.13719 17.933 7.94336 17.7416 7.94336 17.3714C7.94336 15.5565 7.94336 13.7422 7.94336 11.9273C7.94336 11.5421 8.11725 11.3701 8.50428 11.3701C10.0032 11.3701 11.5015 11.3701 13.0004 11.3701C13.3862 11.3701 13.5594 11.5428 13.5594 11.9292C13.5601 12.8366 13.5594 13.7441 13.5594 14.6516L13.5588 14.6509Z" fill="#F8B84E"/>
<path d="M12.8854 10.414C12.7744 10.4146 12.6729 10.3897 12.5738 10.3361C12.0103 10.0301 11.4432 9.73031 10.8804 9.42242C10.7875 9.37194 10.7171 9.37069 10.623 9.4193C10.0403 9.7222 9.45316 10.0158 8.87104 10.3205C8.70588 10.4072 8.5563 10.4408 8.39426 10.323C8.21912 10.1959 8.13436 10.032 8.17238 9.81382C8.22536 9.50843 8.27771 9.20241 8.33193 8.89702C8.39862 8.52057 8.46468 8.1435 8.53511 7.76768C8.54945 7.6904 8.52202 7.64427 8.46655 7.59441C7.99351 7.16686 7.52794 6.73121 7.04991 6.30926C6.86855 6.14909 6.80684 5.96585 6.86481 5.74148C6.92028 5.52646 7.08918 5.44481 7.29173 5.41365C7.94614 5.3133 8.60055 5.21109 9.25559 5.11636C9.35531 5.10202 9.40828 5.06276 9.45129 4.97301C9.72801 4.39463 10.0141 3.82123 10.2908 3.24285C10.3849 3.04528 10.5195 2.9306 10.7451 2.92873C10.977 2.92686 11.116 3.04279 11.2126 3.24597C11.4887 3.82435 11.7754 4.39774 12.0521 4.97612C12.0957 5.06774 12.1524 5.1014 12.2503 5.11573C12.9153 5.21296 13.5797 5.31704 14.2441 5.4205C14.4304 5.4498 14.5812 5.53892 14.633 5.73026C14.6872 5.93157 14.656 6.11606 14.494 6.27062C14.0409 6.70441 13.5965 7.14692 13.139 7.57634C13.0306 7.67855 13.0038 7.77204 13.0294 7.9129C13.1478 8.55859 13.2581 9.20615 13.3678 9.85309C13.4251 10.1915 13.2313 10.4128 12.8848 10.4134L12.8854 10.414Z" fill="#F8B84E"/>
<path d="M7.00133 15.626C7.00133 16.1857 7.00133 16.7453 7.00133 17.305C7.00133 17.4814 7.00569 17.6578 7.06303 17.8267C7.0917 17.9108 7.06926 17.9345 6.98201 17.9345C5.89319 17.9326 4.805 17.9358 3.71619 17.9308C3.46938 17.9295 3.25125 17.7039 3.25062 17.4558C3.24751 16.3159 3.24688 15.1754 3.25062 14.0354C3.25125 13.7743 3.45567 13.5792 3.7218 13.5786C4.77384 13.5755 5.82651 13.5786 6.87855 13.5742C6.99323 13.5742 7.00195 13.6247 7.00133 13.7138C6.99946 14.3514 7.00008 14.989 7.00008 15.6266L7.00133 15.626Z" fill="#F8B84E"/>
<path d="M16.1384 17.9293C15.6099 17.9293 15.0814 17.9256 14.5529 17.9318C14.4263 17.933 14.4033 17.9037 14.4444 17.7847C14.4955 17.637 14.4961 17.4799 14.4961 17.3241C14.4961 16.3294 14.498 15.3347 14.493 14.34C14.4924 14.2103 14.5298 14.1742 14.6588 14.1748C15.6641 14.1798 16.6694 14.1767 17.6747 14.1779C18.0792 14.1779 18.2481 14.3512 18.2481 14.7576C18.2481 15.6282 18.2481 16.4983 18.2481 17.369C18.2481 17.7242 18.0455 17.9293 17.6934 17.9293C17.1755 17.9293 16.6569 17.9293 16.139 17.9293H16.1384Z" fill="#F8B84E"/>
</svg>
